<svg viewBox="0 0 223.72 106.21" xmlns="http://www.w3.org/2000/svg"><path d="m203.39 37.25a11.12 11.12 0 0 1 -11.12 11.12h-22.84a9.34 9.34 0 0 0 -9.34 9.34 9.34 9.34 0 0 0 9.27 9.34l43.51.32a10.93 10.93 0 0 1 10.85 10.93 10.93 10.93 0 0 1 -10.93 10.93h-17c-10.34.02-18.79-1.58-18.79 8.77v7.59l-125.16-.49c0-9.75-7.9-7.65-17.65-7.65h-22.19a12 12 0 0 1 -12-12 12 12 0 0 1 12-12h37.24a11.07 11.07 0 0 0 11.07-11.07 11.07 11.07 0 0 0 -11.07-11.07h-17.59a12.59 12.59 0 0 1 -12.59-12.59 12.59 12.59 0 0 1 12.59-12.6h160.61a11.12 11.12 0 0 1 11.13 11.13z" fill="#dfecff"/><path d="m180 50.49h-28.19a.38.38 0 0 0 -.38.38v54.22a.38.38 0 0 0 .38.38h41.52a.38.38 0 0 0 .38-.38v-40.88z" fill="#fff"/><path d="m180 50.31v13.41a.32.32 0 0 0 .32.32h13.38z" fill="#3375d6"/><path d="m193.32 106.21h-41.51a1.13 1.13 0 0 1 -1.13-1.13v-54.22a1.13 1.13 0 0 1 1.13-1.13h28.48l14.16 14.17v41.18a1.13 1.13 0 0 1 -1.13 1.13zm-41.14-1.5h40.77v-40.19l-13.28-13.28h-27.49z" fill="#0053cc"/><path d="m193.7 65h-13.41a1.07 1.07 0 0 1 -1.07-1.07v-13.44h1.5v13h13z" fill="#0053cc"/><path d="m159.36 68.89h26.17v1.5h-26.17z" fill="#0053cc"/><path d="m159.36 73.95h26.17v1.5h-26.17z" fill="#0053cc"/><path d="m159.36 79.01h26.17v1.5h-26.17z" fill="#0053cc"/><path d="m159.36 86.87h26.17v1.5h-26.17z" fill="#0053cc"/><path d="m159.36 92.18h26.17v1.5h-26.17z" fill="#0053cc"/><path d="m159.36 97.5h12.86v1.5h-12.86z" fill="#0053cc"/><path d="m45 48.89a12.37 12.37 0 1 0 12.4 12.37 12.37 12.37 0 0 0 -12.4-12.37zm0 22a9.58 9.58 0 1 1 9.58-9.58 9.58 9.58 0 0 1 -9.58 9.54z" fill="#3375d6"/><rect fill="#fff" height="28.85" rx=".18" width="3.08" x="43.75" y="76.6"/><path d="m45.25 105.28v-28.49a.18.18 0 0 1 .18-.18h-1.5a.18.18 0 0 0 -.18.18v28.49a.18.18 0 0 0 .18.18h1.5a.18.18 0 0 1 -.18-.18z" fill="#6698e0"/><g fill="#0053cc"><path d="m46.64 106.21h-2.71a.93.93 0 0 1 -.93-.93v-28.49a.93.93 0 0 1 .93-.93h2.71a.93.93 0 0 1 .93.93v28.49a.93.93 0 0 1 -.93.93zm-2.15-1.5h1.58v-27.36h-1.57z"/><path d="m44.53 73.63h1.5v2.43h-1.5z"/><path d="m45.18 74.46a13.12 13.12 0 1 1 9.28-22.4 13.12 13.12 0 0 1 -9.28 22.4zm0-24.74a11.63 11.63 0 1 0 8.22 3.41 11.55 11.55 0 0 0 -8.22-3.41z"/><path d="m37.92 60.51h1.57v1.5h-1.57z"/><path d="m40.84 60.51h1.57v1.5h-1.57z"/><path d="m43.76 60.51h1.57v1.5h-1.57z"/><path d="m46.68 60.51h1.57v1.5h-1.57z"/><path d="m49.6 60.51h1.57v1.5h-1.57z"/><path d="m202.4 36.7h-38.09a.75.75 0 0 1 0-1.5h38.09a.75.75 0 0 1 0 1.5z"/><path d="m56.07 34.65h-31.77a.75.75 0 0 1 0-1.5h31.77a.75.75 0 1 1 0 1.5z"/><path d="m94.49 16.62h-58.18a.75.75 0 0 1 0-1.5h58.18a.75.75 0 1 1 0 1.5z"/><path d="m101.08 16.62h-3.59a.75.75 0 0 1 0-1.5h3.58a.75.75 0 1 1 0 1.5z"/><path d="m160.31 36.7h-3.31a.75.75 0 0 1 0-1.5h3.31a.75.75 0 0 1 0 1.5z"/><path d="m152.07 36.7h-4.27a.75.75 0 0 1 0-1.5h4.27a.75.75 0 0 1 0 1.5z"/><path d="m149.94 38.83a.75.75 0 0 1 -.75-.75v-4.27a.75.75 0 1 1 1.5 0v4.27a.75.75 0 0 1 -.75.75z"/><path d="m74.21 3.64h-4.27a.75.75 0 0 1 0-1.5h4.27a.75.75 0 0 1 0 1.5z"/><path d="m72.07 5.77a.75.75 0 0 1 -.75-.77v-4.25a.75.75 0 0 1 1.5 0v4.25a.75.75 0 0 1 -.75.77z"/><path d="m109.22 16.62h-4.22a.75.75 0 0 1 0-1.5h4.27a.75.75 0 1 1 0 1.5z"/><path d="m107.09 18.76a.75.75 0 0 1 -.75-.75v-4.28a.75.75 0 1 1 1.5 0v4.27a.75.75 0 0 1 -.75.76z"/><path d="m201.92 61.9h-4.27a.75.75 0 0 1 0-1.5h4.27a.75.75 0 1 1 0 1.5z"/><path d="m199.78 64a.75.75 0 0 1 -.75-.75v-4.25a.75.75 0 0 1 1.5 0v4.27a.75.75 0 0 1 -.75.73z"/><path d="m21.21 76a.75.75 0 0 1 -.53-1.28l3-3a.75.75 0 0 1 1.06 1.06l-3 3a.75.75 0 0 1 -.53.22z"/><path d="m24.23 76a.75.75 0 0 1 -.53-.22l-3-3a.75.75 0 0 1 1.06-1.06l3 3a.75.75 0 0 1 -.53 1.28z"/><path d="m61.85 36.16a.75.75 0 0 1 -.53-1.28l3-3a.75.75 0 0 1 1.06 1.06l-3 3a.75.75 0 0 1 -.53.22z"/><path d="m64.88 36.16a.75.75 0 0 1 -.53-.22l-3-3a.75.75 0 1 1 1.06-1.06l3 3a.75.75 0 0 1 -.53 1.28z"/><path d="m12.17 20.38-1.18.68-1.17-.68v-1.36l1.17-.68 1.18.68z"/><path d="m205.33 84.13-1.17.68-1.18-.68v-1.36l1.18-.68 1.17.68z"/><path d="m123.63 8.16-2.64 1.53-2.65-1.53v-3.05l2.65-1.53 2.64 1.53z"/><path d="m32.93 45.67-1.74 1-1.73-1v-2l1.73-1 1.74 1z"/><path d="m185.43 19.01-1.73 1-1.74-1v-2l1.74-1.01 1.73 1.01z"/><path d="m158.42 25.38h-45.42a.75.75 0 0 1 0-1.5h45.42a.75.75 0 0 1 0 1.5z"/></g><rect fill="#fff" height="57.87" rx="2.77" width="32.77" x="132.56" y="47.59"/><path d="m132.56 56.43h32.77v40.77h-32.77z" fill="#3375d6"/><path d="m162.56 47.59h-3.8a2.77 2.77 0 0 1 2.77 2.77v52.33a2.77 2.77 0 0 1 -2.77 2.77h3.8a2.77 2.77 0 0 0 2.77-2.77v-52.33a2.77 2.77 0 0 0 -2.77-2.77z" fill="#0053cc" opacity=".3"/><path d="m135.33 47.59h3.8a2.77 2.77 0 0 0 -2.77 2.77v52.33a2.77 2.77 0 0 0 2.77 2.77h-3.8a2.77 2.77 0 0 1 -2.77-2.77v-52.33a2.77 2.77 0 0 1 2.77-2.77z" fill="#d0e3ff" opacity=".3"/><path d="m162.56 106.21h-27.23a3.52 3.52 0 0 1 -3.52-3.52v-52.33a3.52 3.52 0 0 1 3.52-3.52h27.24a3.52 3.52 0 0 1 3.52 3.52v52.33a3.52 3.52 0 0 1 -3.53 3.52zm-27.23-57.87a2 2 0 0 0 -2 2v52.33a2 2 0 0 0 2 2h27.24a2 2 0 0 0 2-2v-52.31a2 2 0 0 0 -2-2z" fill="#0053cc"/><path d="m132.56 55.2h32.77v1.5h-32.77z" fill="#0053cc"/><path d="m143.69 51.21h10.52v1.5h-10.52z" fill="#0053cc"/><path d="m132.56 96.46h32.77v1.5h-32.77z" fill="#0053cc"/><path d="m135.33 46.84a3.52 3.52 0 0 0 -3.52 3.52v52.33a3.5 3.5 0 0 0 1.37 2.77h10v-58.62z" fill="#5fa0ff" opacity=".3"/><path d="m140.1 30.4h-55.76a.32.32 0 0 0 -.32.32v74.74h56.4v-74.74a.32.32 0 0 0 -.32-.32z" fill="#fff"/><path d="m140.1 30.4h-55.76c-.18 0-.32 0-.32.06v11.1h56.4v-11.1s-.14-.06-.32-.06z" fill="#3375d6"/><path d="m141.17 105.46h-1.5v-74.31h-54.9v74.31h-1.5v-74.74a1.07 1.07 0 0 1 1.07-1.07h55.76a1.07 1.07 0 0 1 1.07 1.07z" fill="#0053cc"/><path d="m84.02 40.74h56.4v1.5h-56.4z" fill="#0053cc"/><path d="m88.16 34.9h2.45v1.5h-2.45z" fill="#fff"/><path d="m95.17 34.9h2.45v1.5h-2.45z" fill="#fff"/><path d="m102.17 34.9h2.45v1.5h-2.45z" fill="#fff"/><path d="m124.7 90.41v-3.7c0-6.15-5.86-11.18-13-11.18-7.17 0-13 5-13 11.18v3.7z" fill="#fff"/><path d="m125.45 90.41h-1.5v-3.7c0-5.75-5.51-10.43-12.28-10.43s-12.28 4.72-12.28 10.43v3.7h-1.5v-3.7c0-6.58 6.18-11.93 13.78-11.93s13.78 5.35 13.78 11.93z" fill="#0053cc"/><path d="m113.96 75.79-2.53 1.38-2.59-1.38v-5.62h5.12z" fill="#fff"/><path d="m111.25 78-3.16-1.79v-6.79h6.62v6.83zm-1.66-2.67 1.69 1 1.92-1v-4.41h-3.62z" fill="#0053cc"/><path d="m111.43 77.17-3.54 4.18a.27.27 0 0 1 -.47-.12l-.91-4.46 2.33-1z" fill="#b0d0ff"/><path d="m112.15 77.17 3.54 4.18a.27.27 0 0 0 .47-.12l.91-4.46-2.33-1z" fill="#b0d0ff"/><path d="m111.37 77.17-3.11 3.68 7.04-.02z" fill="#3375d6"/><path d="m107.69 82.2a1 1 0 0 1 -.26 0 1 1 0 0 1 -.75-.79l-1-5.07 3.2-1.34 3.72 2-4.14 4.89a1 1 0 0 1 -.77.31zm-.32-5 .59 2.89 2.3-2.71-1.45-.78z" fill="#0053cc"/><path d="m115.89 82.2a1 1 0 0 1 -.78-.36l-4.11-4.89 3.72-2 3.22 1.36-1 5.07a1 1 0 0 1 -.75.79 1 1 0 0 1 -.3.03zm-2.57-4.8 2.3 2.71.59-2.89-1.43-.6z" fill="#0053cc"/><path d="m110.48 80.85h2.48l1.28 9.56h-4.91z" fill="#3375d6"/><path d="m105.02 84.88h9.64v1.5h-9.64z" fill="#0053cc" transform="matrix(.13277537 -.99114616 .99114616 .13277537 10.38 183.12)"/><path d="m112.85 80.81h1.5v9.64h-1.5z" fill="#0053cc" transform="matrix(.99116931 -.13260238 .13260238 .99116931 -10.35 15.81)"/><path d="m108.26 80.09h7.04v1.5h-7.04z" fill="#0053cc" transform="matrix(.99999507 -.00314159 .00314159 .99999507 -.26 .36)"/><path d="m102.26 66.78h-.34a1.21 1.21 0 0 1 -1.21-1.21l-.41-12.7c0-1.38.63-1.71 1.7-2.57l1.49-1.2c-3.87-2.41-2.85-4.43-2.85-4.43 1.78 2.68 11.51.69 17.16 1.56a3 3 0 0 1 2.56 2.61l.14 1.06c1.11 0 2-.08 2 1l-.41 14.64a1.21 1.21 0 0 1 -1.21 1.21z" fill="#3375d6"/><path d="m120.92 67.53h-19a1.91 1.91 0 0 1 -1.92-1.91l-.41-12.73a4.45 4.45 0 0 1 2.41-3.89c-1.82-1.41-2.53-2.88-2.12-4.41l.12-.59.59-.08h.41l.25.33c.89 1.3 5.15 1.17 8.91 1a44.91 44.91 0 0 1 7.78.18 3.78 3.78 0 0 1 3.13 3.25l.05.41a2.24 2.24 0 0 1 1.63.52 1.7 1.7 0 0 1 .46 1.26l-.41 14.71a1.91 1.91 0 0 1 -1.88 1.95zm-19.43-21.31a6.29 6.29 0 0 0 2.4 2.25l1.15.72-2.29 1.11a2.93 2.93 0 0 0 -1.7 2.54l.41 12.76a.42.42 0 0 0 .41.44h19a.41.41 0 0 0 .41-.41l.41-14.71a.42.42 0 0 0 0-.18 3.44 3.44 0 0 0 -1-.07h-.87l-.22-1.71a2.27 2.27 0 0 0 -1.87-2 43.79 43.79 0 0 0 -7.5-.16c-3.58.13-6.8.2-8.74-.58z" fill="#0053cc"/><path d="m111.35 74.18a9.76 9.76 0 0 1 -9.73-9.73v-6.6c0-5.35 4.38-8.75 9.73-8.75 5.35 0 9.73 3.4 9.73 8.75v6.6a9.76 9.76 0 0 1 -9.73 9.73z" fill="#fff"/><path d="m111.35 74.93a10.49 10.49 0 0 1 -10.48-10.48v-6.6c0-5.51 4.41-9.5 10.48-9.5s10.48 4 10.48 9.5v6.59a10.49 10.49 0 0 1 -10.48 10.49zm0-25.08c-5.2 0-9 3.37-9 8v6.59a9 9 0 1 0 18 0v-6.59c-.02-4.64-3.8-8-9-8z" fill="#0053cc"/><path d="m121.62 51.35-2.52-1.06c.23-.25-.12-.61 0-.95.84-2.39-3.83-1.4-3.83-1.4s-5.39-2.22-11.54 2.4l-3.07 4.54s8.93 2.54 16-3.77c.07 1.92.56 4.73 4.94 5.65v-5.41z" fill="#3375d6"/><path d="m121.86 57.58c-4.05-.85-5.35-3.34-5.76-5.11-7.2 5.35-15.59 2.95-16 2.84l.43-1.44c.09 0 8.74 2.48 15.49-3.28l.36-.3.52.17a.83.83 0 0 1 .5.73c.08 1.81 1 4.14 4.73 4.92z" fill="#0053cc"/><path d="m108.28 64.14h-4.58a2.75 2.75 0 0 1 -2.7-2.75v-1.92a2.75 2.75 0 0 1 2.75-2.75h4.57a2.75 2.75 0 0 1 2.68 2.75v1.92a2.75 2.75 0 0 1 -2.72 2.75zm-4.57-5.92a1.25 1.25 0 0 0 -1.25 1.25v1.92a1.25 1.25 0 0 0 1.25 1.25h4.57a1.25 1.25 0 0 0 1.25-1.25v-1.92a1.25 1.25 0 0 0 -1.25-1.25z" fill="#0053cc"/><path d="m119 64.14h-4.57a2.75 2.75 0 0 1 -2.75-2.75v-1.92a2.75 2.75 0 0 1 2.75-2.75h4.57a2.75 2.75 0 0 1 2.75 2.75v1.92a2.75 2.75 0 0 1 -2.75 2.75zm-4.57-5.92a1.25 1.25 0 0 0 -1.25 1.25v1.92a1.25 1.25 0 0 0 1.25 1.25h4.57a1.25 1.25 0 0 0 1.25-1.25v-1.92a1.25 1.25 0 0 0 -1.25-1.25z" fill="#0053cc"/><path d="m110.28 59.68h1.9v1.5h-1.9z" fill="#0053cc"/><path d="m105.02 59.68h1.95v1.5h-1.95z" fill="#0053cc"/><path d="m115.73 59.68h1.95v1.5h-1.95z" fill="#0053cc"/><path d="m113.72 67.93h-3.03v-6.78h1.5v5.28h1.53z" fill="#0053cc"/><path d="m114.39 71.04h-5.77v-1.5h5.24l1.39-1.15.96 1.16z" fill="#0053cc"/><path d="m111.67 99.21a19.05 19.05 0 0 1 -13.57-32.43l1.07 1.05a17.55 17.55 0 1 0 24.17-.83l1-1.12a19.05 19.05 0 0 1 -12.67 33.28z" fill="#0053cc"/><path d="m97.02 90h29.35v1.5h-29.35z" fill="#0053cc"/><path d="m128.68 103.49-4.97-4.96 4.18-4.18 4.96 4.96-1.06 1.06-3.9-3.9-2.06 2.06 3.91 3.9z" fill="#0053cc"/><path d="m124.08 93.33h1.5v4.26h-1.5z" fill="#0053cc" transform="matrix(.70710678 -.70710678 .70710678 .70710678 -30.94 116.24)"/><path d="m98.65 105.46v-5a1.85 1.85 0 0 0 -1.25-1.75l-5.58-1.9v-2.44a2.32 2.32 0 0 0 1-1.18 2.89 2.89 0 0 0 .47-1.38l.45-5.59a5.33 5.33 0 0 0 -10.44-1.55v4.92l.18 2.22a2.93 2.93 0 0 0 .84 1.82 2.31 2.31 0 0 0 .65.67v2.55l-1.67.57v.67.12 7.24h15.35z" fill="#5fa0ff" opacity=".3"/><path d="m57.47 86.61a4.65 4.65 0 0 0 -9.29 0l.45 5.58a2.18 2.18 0 0 0 1.16 1.81l2.21 1.44h1.49l2.37-1.44a2.18 2.18 0 0 0 1.14-1.81z" fill="#99baeb"/><path d="m60.54 99.46-5-2.09v-2.94h-5.46v2.94l-6.14 2.09a1.11 1.11 0 0 0 -.75 1v4.95h18.12v-4.95a1.11 1.11 0 0 0 -.77-1z" fill="#99baeb"/><path d="m90.91 86.59a5 5 0 0 0 -10 0l.48 6a2.33 2.33 0 0 0 1.25 1.9l2.41 1.59h1.6l2.5-1.59a2.33 2.33 0 0 0 1.25-1.9z" fill="#3375d6"/><path d="m94.2 99.7-5.38-2.24v-2.46h-5.82v2.49l-6.58 2.21a1.19 1.19 0 0 0 -.8 1.12v4.64h19.38v-4.64a1.19 1.19 0 0 0 -.8-1.12z" fill="#3375d6"/><path d="m74.63 86a5.12 5.12 0 0 0 -10.24 0l.49 6.15a2.4 2.4 0 0 0 1.28 2l2.48 1.63h1.64l2.57-1.63a2.4 2.4 0 0 0 1.28-2z" fill="#fff"/><path d="m78 99.53-5.53-2.31v-2.56h-6v2.56l-6.77 2.31a1.22 1.22 0 0 0 -.83 1.16v4.77h19.99v-4.77a1.22 1.22 0 0 0 -.86-1.16z" fill="#fff"/><path d="m60.51 105.46h-1.51v-5a1.85 1.85 0 0 1 1.25-1.75l5.58-1.9v-2.81h1.5v4l-6.59 2.25a.35.35 0 0 0 -.24.33z" fill="#0053cc"/><path d="m79.55 105.46h-1.55v-5a.35.35 0 0 0 -.24-.33l-6.59-2.25v-3.88h1.5v2.88l5.58 1.9a1.85 1.85 0 0 1 1.25 1.75z" fill="#0053cc"/><path d="m70.22 95.72h-1.92l-2.42-1.59a2.88 2.88 0 0 1 -1.49-2.33l-.44-5.53a5.35 5.35 0 1 1 10.71-.06v.06l-.44 5.53a2.92 2.92 0 0 1 -1.56 2.36zm-1.47-1.5h1l2.13-1.35a1.45 1.45 0 0 0 .81-1.18l.44-5.5a3.85 3.85 0 0 0 -7.71 0l.44 5.47a1.42 1.42 0 0 0 .75 1.15z" fill="#0053cc"/><path d="m70.69 100.09h-2.72l-1.94-2.21 1.12-.99 1.5 1.7h1.36l1.5-1.7 1.13.99z" fill="#0053cc"/><path d="m43.94 105.46h-1.5v-5a1.85 1.85 0 0 1 1.25-1.75l5.58-1.9v-2.81h1.5v4l-6.59 2.25a.35.35 0 0 0 -.24.33z" fill="#0053cc"/><path d="m57.54 98.9-2.88-.98v-3.95h1.5v2.87l1.87.64z" fill="#0053cc"/><path d="m53.65 95.72h-1.92l-2.42-1.59a2.84 2.84 0 0 1 -1.49-2.32l-.44-5.53a5.35 5.35 0 1 1 10.71-.06v.06l-.44 5.53a2.92 2.92 0 0 1 -1.55 2.36zm-1.47-1.5h1l2.13-1.35a1.45 1.45 0 0 0 .81-1.18l.44-5.5a3.85 3.85 0 0 0 -7.71 0l.44 5.47a1.4 1.4 0 0 0 .75 1.15z" fill="#0053cc"/><path d="m54.12 100.09h-2.71l-1.95-2.21 1.13-.99 1.5 1.7h1.36l1.5-1.7 1.12.99z" fill="#0053cc"/><path d="m96.15 105.46h-1.5v-5a.35.35 0 0 0 -.24-.33l-6.59-2.25v-3.88h1.5v2.88l5.58 1.9a1.85 1.85 0 0 1 1.25 1.75z" fill="#0053cc"/><path d="m81.05 98.9-.48-1.42 1.87-.64v-2.87h1.5v3.95z" fill="#0053cc"/><path d="m86.86 95.72h-1.92l-2.49-1.58a2.89 2.89 0 0 1 -1.45-2.34l-.44-5.53a5.35 5.35 0 1 1 10.71-.06l-.45 5.59a2.89 2.89 0 0 1 -1.56 2.36zm-1.48-1.5h1l2-1.34a1.45 1.45 0 0 0 .82-1.18l.44-5.53a3.86 3.86 0 0 0 -7.71.06l.44 5.48a1.41 1.41 0 0 0 .75 1.14z" fill="#0053cc"/><path d="m87.19 100.09h-2.72l-1.95-2.21 1.13-.99 1.5 1.7h1.36l1.5-1.7 1.13.99z" fill="#0053cc"/><path d="m206 106.21h-183.28a.75.75 0 1 1 0-1.5h183.28a.75.75 0 0 1 0 1.5z" fill="#0053cc"/><path d="m211.38 106.21h-2.71a.75.75 0 0 1 0-1.5h2.71a.75.75 0 0 1 0 1.5z" fill="#0053cc"/><path d="m19.52 106.21h-4.6a.75.75 0 0 1 0-1.5h4.6a.75.75 0 1 1 0 1.5z" fill="#0053cc"/><path d="m71.21 64.94-2.51-2.52a.75.75 0 1 1 1.06-1.06l1.44 1.44 6.58-6.68a.75.75 0 0 1 1.07 1.05z" fill="#0053cc"/><path d="m70.79 69.14a6.85 6.85 0 1 1 3.48-12.75.75.75 0 1 1 -.76 1.29 5.35 5.35 0 1 0 2.63 4.61.75.75 0 0 1 1.5 0 6.86 6.86 0 0 1 -6.85 6.85z" fill="#0053cc"/><path d="m165.3 101.16-2.42 2.1 2.42 2.11h35.23v-4.21z" fill="#fff"/><path d="m201.28 106.12h-36.28l-3.27-2.85 3.27-2.85h36.26zm-35.7-1.5h34.2v-2.71h-34.2l-1.58 1.35z" fill="#0053cc"/><path d="m201.08 102.51h3.53v1.5h-3.53z" fill="#0053cc"/><path d="m160.05 102.51h3.53v1.5h-3.53z" fill="#0053cc"/><path d="m179.4 101.07h1.5v4.39h-1.5z" fill="#0053cc"/><path d="m167.72 101.07h1.5v4.39h-1.5z" fill="#0053cc"/><path d="m198.76 101.16h-1.5v-2.18h-10.81v-1.5h12.31z" fill="#0053cc"/><path d="m44.45 96.74v-2.45l-2.05-.56a7.74 7.74 0 0 0 -1-2.31l1.23-2-1.73-1.73-2 1.2a7.74 7.74 0 0 0 -2.31-1l-.59-2.19h-2.42l-.58 2.23a7.74 7.74 0 0 0 -2.29.95l-1.95-1.16-1.76 1.73 1.15 2a7.74 7.74 0 0 0 -1 2.31l-2.06.65v2.39l2.05.48a7.74 7.74 0 0 0 1 2.31l-1.23 1.89 1.73 1.74 2-1.09a7.75 7.75 0 0 0 2.31 1l.57 2.36h2.48l.55-2.36a7.74 7.74 0 0 0 2.31-1l2 1.19 1.74-1.73-1.23-2a7.74 7.74 0 0 0 1-2.31zm-9.9 2.18a3.45 3.45 0 1 1 3.45-3.46 3.45 3.45 0 0 1 -3.46 3.46z" fill="#fff"/><path d="m36.63 106.21h-3.63l-.61-2.5a8.49 8.49 0 0 1 -1.7-.71l-2.15 1.16-2.54-2.57 1.31-2a8.47 8.47 0 0 1 -.69-1.66l-2.19-.51v-3.62l2.19-.69a8.47 8.47 0 0 1 .71-1.72l-1.23-2.07 2.56-2.55 2.07 1.23a8.51 8.51 0 0 1 1.67-.69l.6-2.37h3.62l.6 2.37a8.44 8.44 0 0 1 1.69.7l2.09-1.27 2.56 2.57-1.3 2.12a8.52 8.52 0 0 1 .7 1.69l2.19.6v3.6l-2.19.6a8.44 8.44 0 0 1 -.7 1.69l1.31 2.11-2.57 2.55-2.1-1.27a8.42 8.42 0 0 1 -1.68.7zm-2.46-1.5h1.27l.52-2.23.45-.11a7 7 0 0 0 2.09-.86l.38-.24 1.92 1.13.9-.9-1.16-1.88.25-.4a7 7 0 0 0 .87-2.09l.1-.43 1.93-.53v-1.31l-1.93-.53-.1-.44a7 7 0 0 0 -.87-2.09l-.24-.39 1.16-1.89-.9-.9-1.91 1.14-.39-.24a7 7 0 0 0 -2.09-.87l-.44-.1-.53-2.1h-1.28l-.53 2.1-.44.1a7 7 0 0 0 -2.07.86l-.39.24-1.84-1.09-.91.91 1.08 1.84-.24.39a7 7 0 0 0 -.83 2.08l-.1.42-1.94.61v1.31l1.93.45.11.45a7 7 0 0 0 .86 2.09l.25.41-1.16 1.78.91.91 1.92-1 .37.23a7 7 0 0 0 2.09.87l.45.11zm.37-5a4.2 4.2 0 1 1 4.2-4.2 4.21 4.21 0 0 1 -4.2 4.16zm0-6.91a2.7 2.7 0 1 0 2.7 2.7 2.71 2.71 0 0 0 -2.7-2.74z" fill="#0053cc"/><path d="m34.17 87.72h1.05v1.5h-1.05z" fill="#0053cc"/><path d="m38.97 90.03h1.5v1.05h-1.5z" fill="#0053cc" transform="matrix(.70760026 -.70661296 .70661296 .70760026 -52.37 54.54)"/><path d="m41.27 94.83h1.05v1.5h-1.05z" fill="#0053cc" transform="matrix(0 -1 1 0 -53.84 137.24)"/><path d="m39.18 99.85h1.05v1.5h-1.05z" fill="#0053cc" transform="matrix(.70846302 -.70574793 .70574793 .70846302 -59.42 57.36)"/><path d="m33.93 102.14h1.5v1.05h-1.5z" fill="#0053cc" transform="matrix(.00279252 -.9999961 .9999961 .00279252 -68.09 137.05)"/><path d="m28.91 100.05h1.5v1.05h-1.5z" fill="#0053cc" transform="matrix(.70870933 -.70550059 .70550059 .70870933 -62.31 50.22)"/><path d="m27.07 94.8h1.05v1.5h-1.05z" fill="#0053cc" transform="matrix(.00383971 -.99999263 .99999263 .00383971 -68.06 122.78)"/><path d="m29.17 89.78h1.05v1.5h-1.05z" fill="#0053cc" transform="matrix(.70969371 -.70451036 .70451036 .70969371 -55.16 47.2)"/></svg>